<svg width="20" height="20" viewBox="0 0 20 20" fill="none" xmlns="http://www.w3.org/2000/svg">
<path d="M8.68581 18.0437L8.68305 18.0421L4.11496 15.4093C3.16178 14.7663 2.78261 14.4693 2.59076 14.1388C2.40775 13.8237 2.3667 13.4258 2.3667 12.4087V7.59199C2.3667 6.57339 2.40562 6.17441 2.58452 5.86024C2.77035 5.53392 3.13837 5.24176 4.07398 4.60765L8.67512 1.94996L8.6762 1.94933C9.02138 1.74879 9.49266 1.63574 9.98753 1.63574C10.4824 1.63574 10.9537 1.74879 11.2989 1.94933L11.3004 1.95024L15.8851 4.59142C16.8383 5.23437 17.2175 5.5314 17.4093 5.86181C17.5923 6.177 17.6334 6.57483 17.6334 7.59199V12.4003C17.6334 13.4189 17.5944 13.8179 17.4155 14.1321C17.2297 14.4584 16.8617 14.7506 15.9261 15.3847L11.3261 18.0417C11.3259 18.0418 11.3257 18.0419 11.3255 18.042C10.967 18.2477 10.4907 18.3587 10 18.3587C9.50802 18.3587 9.03362 18.2472 8.68581 18.0437ZM4.2331 4.81747L4.21807 4.82616L4.20367 4.83587L4.18755 4.84675C3.86167 5.06666 3.59379 5.24744 3.38779 5.41047C3.17519 5.57872 2.99258 5.7551 2.86232 5.97965C2.72905 6.2094 2.67398 6.44876 2.64868 6.70466C2.62501 6.94414 2.62502 7.23234 2.62503 7.56891L2.62503 7.59199V12.4003L2.62503 12.4238C2.62502 12.76 2.62501 13.0487 2.64931 13.2892C2.67536 13.5468 2.73206 13.7872 2.86798 14.0184C3.00034 14.2434 3.18564 14.4215 3.40209 14.5926C3.6124 14.7588 3.88617 14.9441 4.22058 15.1703L4.23649 15.1811L4.25133 15.1911L4.26684 15.2001L8.81684 17.8251L8.81705 17.8252C9.163 18.0246 9.60367 18.1045 10.0042 18.1045C10.4047 18.1045 10.8454 18.0246 11.1913 17.8252L11.192 17.8249L15.7753 15.1748L15.791 15.1658L15.8059 15.1556L15.822 15.1447C16.1458 14.9248 16.4122 14.744 16.617 14.5809C16.8285 14.4125 17.01 14.236 17.1395 14.0115C17.2718 13.782 17.3264 13.5429 17.3515 13.2874C17.3751 13.048 17.375 12.76 17.375 12.4233V12.4003V7.59199V7.56856C17.375 7.23229 17.3751 6.94359 17.3508 6.70316C17.3247 6.44552 17.268 6.20512 17.1321 5.97396C16.9997 5.74887 16.8144 5.57082 16.598 5.39973C16.3877 5.23349 16.1139 5.04824 15.7794 4.82195L15.7636 4.81122L15.7487 4.80118L15.7332 4.79223L11.1862 2.16898C11.1857 2.16867 11.1852 2.16836 11.1846 2.16805C10.8382 1.96552 10.3984 1.89199 10 1.89199C9.60159 1.89199 9.16173 1.96554 8.81527 2.16814L4.2331 4.81747Z" stroke="#A9A9B0"/>
<path d="M10 12.625C8.55114 12.625 7.375 11.4489 7.375 10C7.375 8.55114 8.55114 7.375 10 7.375C11.4489 7.375 12.625 8.55114 12.625 10C12.625 11.4489 11.4489 12.625 10 12.625ZM10 7.625C8.69052 7.625 7.625 8.69052 7.625 10C7.625 11.3095 8.69052 12.375 10 12.375C11.3095 12.375 12.375 11.3095 12.375 10C12.375 8.69052 11.3095 7.625 10 7.625Z" fill="#292D32" stroke="#A9A9B0"/>
</svg>
